# Blender v2.74 (sub 0) OBJ File: 'plateforme.blend'
# www.blender.org
mtllib plateforme.mtl
o Cube
v 1.000000 0.062504 -1.000000
v 1.000000 0.062504 1.000000
v -1.000000 0.062504 1.000000
v -1.000000 0.062504 -1.000000
v 1.000000 0.380829 -0.999999
v 0.999999 0.380829 1.000001
v -1.000000 0.380829 1.000000
v -1.000000 0.380829 -1.000000
v 1.827653 0.062505 -1.000000
v 1.827653 0.062505 1.000000
v 1.827654 0.071066 -0.999999
v 1.827653 0.071066 1.000001
v 1.000000 0.416683 -1.317502
v -1.000000 0.416683 -1.317503
v 1.000001 0.735007 -1.317502
v -1.000000 0.735007 -1.317502
v 1.000000 0.333491 1.376135
v -1.000000 0.333491 1.376135
v 0.999999 0.651816 1.376136
v -1.000000 0.651816 1.376135
v -1.278579 0.369226 1.000000
v -1.278579 0.369226 -1.000000
v -1.278579 0.687550 1.000000
v -1.278579 0.687550 -1.000000
vt 0.435721 0.435062
vt 0.870454 0.435062
vt 0.870454 0.000329
vt 0.435721 0.000329
vt 0.000329 0.435062
vt 0.000329 0.000329
vt 0.435062 0.000329
vt 0.435062 0.435062
vt 0.435062 0.614966
vt 0.000329 0.614966
vt 0.763122 0.870454
vt 0.763122 0.435721
vt 0.844881 0.435721
vt 0.844881 0.870454
vt 0.937784 0.000329
vt 0.937784 0.435062
vt 0.871113 0.435062
vt 0.871113 0.000329
vt 0.000329 0.615625
vt 0.435062 0.615625
vt 0.435062 0.692612
vt 0.000329 0.692612
vt 0.999671 0.870454
vt 0.997810 0.870454
vt 0.997810 0.435721
vt 0.999671 0.435721
vt 0.311119 0.760600
vt 0.380312 0.760600
vt 0.380312 0.940504
vt 0.378451 0.940504
vt 0.310460 0.829793
vt 0.310460 0.760600
vt 0.130556 0.827932
vt 0.130556 0.829793
vt 0.435721 0.435721
vt 0.435721 0.870454
vt 0.615625 0.870454
vt 0.615625 0.435721
vt 0.616284 0.870454
vt 0.685477 0.870454
vt 0.685477 0.435721
vt 0.616284 0.435721
vt 0.060883 0.760600
vt 0.060883 0.829793
vt 0.129897 0.906779
vt 0.129897 0.837586
vt 0.427157 0.863992
vt 0.380971 0.915514
vt 0.380971 0.812122
vt 0.427157 0.760600
vt 0.762463 0.870454
vt 0.762463 0.435721
vt 0.997151 0.870454
vt 0.927958 0.870454
vt 0.927958 0.435721
vt 0.997151 0.435721
vt 0.186697 0.870898
vt 0.130556 0.830452
vt 0.130556 0.931220
vt 0.186697 0.971666
vt 0.243496 0.971666
vt 0.187355 0.931220
vt 0.187355 0.830452
vt 0.243496 0.870898
vt 0.845540 0.435721
vt 0.845540 0.870454
vt 0.927299 0.870454
vt 0.927299 0.435721
vt 0.940306 0.000329
vt 0.940306 0.435062
vt 0.000329 0.827271
vt 0.000329 0.896464
vt 0.290675 0.971737
vt 0.244155 0.920517
vt 0.244155 0.830452
vt 0.290675 0.881672
vt 0.000329 0.759941
vt 0.435062 0.759941
vt 0.435062 0.693270
vt 0.000329 0.693270
vn 0.000000 -1.000000 -0.000000
vn 0.000000 1.000000 0.000000
vn 0.350500 0.936600 0.000000
vn 0.000000 0.811400 -0.584500
vn 0.740300 0.672300 0.000000
vn -0.000000 0.667500 0.744600
vn 1.000000 0.000000 0.000000
vn -0.000000 -0.000000 1.000000
vn 0.000000 0.000000 -1.000000
vn -1.000000 -0.000000 -0.000000
vn 0.000000 -0.667500 -0.744600
vn -0.000000 -0.811400 0.584500
vn -0.740300 -0.672300 -0.000000
usemtl Material
s off
f 1/1/1 2/2/1 3/3/1 4/4/1
f 5/5/2 8/6/2 7/7/2 6/8/2
f 5/5/3 6/8/3 12/9/3 11/10/3
f 6/11/4 7/12/4 20/13/4 19/14/4
f 7/15/5 8/16/5 24/17/5 23/18/5
f 8/19/6 5/20/6 15/21/6 16/22/6
f 9/23/7 11/24/7 12/25/7 10/26/7
f 6/27/8 2/28/8 10/29/8 12/30/8
f 1/31/9 5/32/9 11/33/9 9/34/9
f 2/35/1 1/36/1 9/37/1 10/38/1
f 15/39/9 13/40/9 14/41/9 16/42/9
f 4/43/10 8/44/10 16/45/10 14/46/10
f 5/47/7 1/48/7 13/49/7 15/50/7
f 1/51/11 4/52/11 14/41/11 13/40/11
f 17/53/8 19/54/8 20/55/8 18/56/8
f 7/57/10 3/58/10 18/59/10 20/60/10
f 2/61/7 6/62/7 19/63/7 17/64/7
f 3/65/12 2/66/12 17/67/12 18/68/12
f 21/69/10 23/18/10 24/17/10 22/70/10
f 8/44/9 4/43/9 22/71/9 24/72/9
f 3/73/8 7/74/8 23/75/8 21/76/8
f 4/77/13 3/78/13 21/79/13 22/80/13
